<svg xmlns="http://www.w3.org/2000/svg" width="848" height="79" viewBox="0 0 848 79" fill="none">
<g clip-path="url(#clip0_1125_4894)">
<path d="M25.1985 4.47937L26.6562 8.39188C19.2689 9.29788 13.4407 10.8745 4.83117 14.0759L11.5072 32.0264L11.611 31.9884C11.7882 29.4273 13.304 27.4331 15.8626 26.4866C19.4638 25.1479 22.6957 26.6739 25.3656 25.6844C26.512 25.2567 27.5066 24.419 28.4025 22.7083L29.068 23.0549C27.8027 26.6739 26.1273 28.248 24.1964 28.9642C21.1595 30.0904 17.6165 28.8579 14.5948 29.9765C12.4563 30.7712 11.8438 32.9603 12.5043 34.7343L19.0665 52.371L14.8908 53.9248L-0.0177612 13.8482L25.1985 4.47937Z" fill="#FFFBF0"/>
<path d="M57.1086 0.450529C68.9549 -0.0859864 76.942 8.91584 77.4582 20.3168C78.0529 33.4437 68.6588 43.8526 55.5319 44.4397C43.6855 44.9762 35.6986 35.9744 35.1824 24.5735C34.5876 11.4465 43.9816 1.04525 57.1086 0.450529ZM73.1509 22.4072C72.703 12.507 66.1155 2.43969 55.3244 2.92053C44.9813 3.38872 39.0442 12.631 39.4921 22.4755C39.9401 32.3758 46.5251 42.443 57.3162 41.9622C67.6618 41.494 73.5963 32.2517 73.1509 22.4072Z" fill="#FFFBF0"/>
<path d="M107.733 45.7051L106.617 50.306L79.7916 43.7843L89.8866 2.23462L94.2168 3.28744L84.4886 43.3211C94.1889 45.5659 98.4431 45.7304 107.733 45.7051Z" fill="#FFFBF0"/>
<path d="M135.721 61.5474L133.466 65.7079L109.189 52.5481L129.566 14.9591L133.481 17.0824L113.848 53.3023C122.662 57.9512 126.732 59.2065 135.721 61.5474Z" fill="#FFFBF0"/>
<path d="M168.438 32.1707C180.064 34.504 185.647 45.166 183.4 56.3569C180.813 69.2409 169.187 77.071 156.306 74.4821C144.68 72.1487 139.097 61.4867 141.344 50.2958C143.92 37.4144 155.547 29.5817 168.438 32.1707ZM178.715 57.3464C180.667 47.6309 176.691 36.2705 166.11 34.1447C155.957 32.1049 147.97 39.6439 146.029 49.3063C144.077 59.0218 148.053 70.3823 158.634 72.5081C168.777 74.5479 176.764 67.0088 178.705 57.3464H178.715Z" fill="#FFFBF0"/>
<path d="M183.66 39.5782L187.899 37.7358L210.929 64.6401L211.03 64.5971L207.609 29.1668L208.581 28.7441L233.367 55.494L233.468 55.4484C231.977 41.5294 230.742 33.9372 228.141 20.251L232.531 18.3453L236.328 63.3089L235.255 63.7746L210.922 37.6321L210.818 37.6776L214.019 73.0092L213.007 73.4521L183.66 39.5782Z" fill="#FFFBF0"/>
<path d="M264.606 29.9766L261.412 4.22638L265.831 3.67723L269.03 29.3693C270.267 39.315 275.584 43.2529 283.926 42.2153C292.381 41.1625 296.832 35.8884 295.648 26.3931C294.555 17.6064 293.163 9.14106 291.47 0.485942L295.337 0.00512695L298.541 25.7528C299.993 37.4094 294.562 43.8096 283.455 45.1914C272.294 46.5833 266.069 41.6357 264.606 29.9766Z" fill="#FFFBF0"/>
<path d="M305.548 34.9038C308.135 38.7303 311.875 42.1898 316.64 42.7491C321.507 43.3084 325.797 40.6081 326.331 35.9617C327.596 25.0795 305.948 22.1843 307.35 10.0166C308.094 3.54549 314.851 0.847751 321.1 1.56648C325.526 2.07263 329.78 3.57334 333.199 6.48875L329.522 9.70783C327.176 6.24579 324.147 3.82138 320.054 3.35066C315.907 2.87488 311.794 4.52997 311.296 8.84487C310.106 19.188 332.301 22.6374 330.914 34.6406C329.99 42.6605 322.669 45.9075 315.368 45.0672C310.167 44.47 305.386 42.1822 301.411 38.7556L305.548 34.9038Z" fill="#FFFBF0"/>
<path d="M385.937 30.4472C400.081 37.7585 401.374 49.2076 396.743 58.1588C391.631 68.0514 380.44 70.5391 374.455 67.4466C371.193 65.7586 371.028 63.1671 372.43 60.4465C373.832 57.726 376.839 54.8283 379.937 52.3482L379.79 52.1458C369.667 58.8826 364.018 62.0434 359.714 59.8189C357.183 58.5156 356.57 54.7575 358.668 50.6906C362.783 42.7289 375.799 37.799 384.257 42.1696C386.482 43.3033 388.315 45.0812 389.515 47.2716C383.533 51.4498 378.686 56.3392 376.718 60.1479C375.313 62.8685 375.356 65.0854 377.434 66.1584C381.242 68.1273 390.492 65.5131 394.812 57.154C398.955 49.1417 397.996 38.8695 385.335 32.325C373.465 26.188 359.233 30.9281 353.402 42.1949C347.495 53.6212 352.109 68.102 363.284 73.8797C368.675 76.6399 374.927 77.1971 380.721 75.4336L381.293 77.3595C375.003 79.2346 368.231 78.6081 362.391 75.6107C349.975 69.1928 345.056 53.7376 351.471 41.3243C357.917 28.8757 373.473 24.004 385.937 30.4472ZM363.332 57.683C366.546 59.3457 378.977 51.67 385.35 47.2488C384.2 45.6426 382.691 44.3264 380.944 43.4046C374.809 40.2336 366.772 42.9136 363.125 49.9845C361.219 53.6465 361.601 56.7896 363.332 57.683Z" fill="#FFFBF0"/>
<path d="M433.09 33.5171L433.138 37.6928C425.88 36.0478 419.862 35.5594 410.675 35.6682L410.89 54.8208H411.001C412.034 52.4698 414.134 51.1107 416.863 51.0804C420.704 51.0373 423.238 53.5707 426.077 53.5378C427.302 53.5251 428.522 53.0645 429.954 51.7663L430.46 52.3179C428.043 55.2941 425.938 56.2102 423.88 56.233C420.651 56.2684 417.728 53.9072 414.499 53.9553C412.221 53.9806 410.903 55.8306 410.923 57.7236L411.136 76.5421L406.681 76.5927L406.201 33.836L433.09 33.5171Z" fill="#FFFBF0"/>
<path d="M442.112 32.2213L450.767 49.3063L450.868 49.2557C450.754 46.692 452.037 44.5434 454.472 43.311C457.899 41.5749 461.29 42.7264 463.836 41.4433C464.929 40.8916 465.82 39.9401 466.533 38.1534L467.232 38.4241C466.379 42.162 464.896 43.9133 463.059 44.8446C460.176 46.3049 456.512 45.4773 453.632 46.9375C451.594 47.9675 451.233 50.2097 452.088 51.9003L459.726 66.9885C468.566 62.3851 474.298 58.4195 479.949 53.5605L482.087 57.7818L456.608 70.6885L437.283 32.5427L461.771 20.1421L463.656 23.8674C456.395 25.5478 450.208 28.243 442.112 32.2213Z" fill="#FFFBF0"/>
<path d="M477.426 13.7672L483.856 31.8063L483.96 31.7709C484.172 29.2123 485.716 27.2434 488.285 26.3272C491.904 25.0366 495.118 26.6081 497.798 25.654C498.952 25.244 499.957 24.4115 500.891 22.7209L501.549 23.0752C500.233 26.679 498.54 28.2278 496.598 28.9187C493.562 30.0044 490.019 28.7213 486.982 29.8045C484.831 30.5637 484.198 32.7502 484.825 34.5344L490.507 50.478C499.871 47.0261 506.043 43.8171 512.271 39.7072L513.858 44.1664L486.956 53.7553L472.599 13.4787L498.446 4.26172L499.848 8.19702C492.435 8.94865 485.957 10.8416 477.426 13.7672Z" fill="#FFFBF0"/>
<path d="M545.426 38.4317L545.614 43.1592L518.029 44.2448L516.346 1.51848L520.797 1.34387L522.417 42.5138C532.358 42.0102 536.501 41.0106 545.426 38.4317Z" fill="#FFFBF0"/>
<path d="M554.261 35.8251C556.392 39.9249 559.72 43.7918 564.384 44.8825C569.155 45.996 573.725 43.8069 574.791 39.2516C577.288 28.5719 556.124 23.2245 558.913 11.2971C560.396 4.95511 567.416 3.05202 573.543 4.48441C577.878 5.49671 581.935 7.47576 584.995 10.7632L580.973 13.547C579.04 9.83693 576.309 7.08096 572.298 6.14459C568.231 5.19304 563.946 6.36726 562.967 10.5961C560.596 20.7342 582.241 26.7093 579.493 38.4722C577.653 46.3327 570.008 48.7191 562.851 47.0463C557.754 45.8543 553.269 43.0326 549.711 39.1707L554.261 35.8251Z" fill="#FFFBF0"/>
<path d="M605.962 60.4567L603.729 64.6299L579.376 51.6093L599.536 13.9014L603.464 16.0019L584.038 52.3357C592.88 56.9365 596.957 58.169 605.962 60.4567Z" fill="#FFFBF0"/>
<path d="M627.038 28.6378L631.158 30.3283L614.933 69.8888L610.811 68.1983L627.038 28.6378Z" fill="#FFFBF0"/>
<path d="M638.322 75.9019L633.871 75.7045L635.753 32.9882L640.205 33.183L639.281 54.0971C647.602 47.3856 652.31 43.0251 660.729 34.0891L666.681 34.3421L644.039 52.404L665.019 77.0711L658.945 76.8028L640.79 54.993L639.175 56.2583L638.322 75.9019Z" fill="#FFFBF0"/>
<path d="M674.876 33.5044L682.926 50.883L683.028 50.8374C683.005 48.2687 684.361 46.1682 686.839 45.0167C690.324 43.4021 693.672 44.6725 696.251 43.478C697.362 42.9719 698.275 42.0431 699.06 40.2741L699.748 40.5677C698.766 44.2752 697.217 45.9733 695.352 46.8388C692.422 48.1978 688.79 47.2412 685.859 48.5977C683.789 49.5594 683.349 51.7864 684.144 53.5048L691.26 68.8613C700.254 64.559 706.12 60.811 711.939 56.1519L713.928 60.4542L688.013 72.46L670.045 33.6638L694.95 22.1237L696.706 25.9198C689.382 27.337 683.106 29.8146 674.876 33.5044Z" fill="#FFFBF0"/>
<path d="M722.029 55.742L717.314 54.2008L718.853 49.4861L723.57 51.0273L722.029 55.742Z" fill="#FFFBF0"/>
<path d="M719.42 9.59656L731.02 38.8974C735.262 49.6125 736.446 56.3898 727.852 67.8136L727.11 67.1505C732.751 56.8934 730.729 50.268 727.328 41.6736L715.284 11.2314L719.42 9.59656Z" fill="#FFFBF0"/>
<path d="M737.173 29.845L734.072 4.08461L738.494 3.55319L741.589 29.2578C742.786 39.2061 748.085 43.1769 756.432 42.1646C764.889 41.1523 769.361 35.8985 768.217 26.3905C767.159 17.6013 765.803 9.12836 764.143 0.468179L768.012 0.00256348L771.112 25.7604C772.517 37.4246 767.063 43.802 755.948 45.1407C744.783 46.4896 738.577 41.5091 737.173 29.845Z" fill="#FFFBF0"/>
<path d="M805.93 42.2658L805.277 46.9528L777.925 43.1415L783.824 0.792114L788.235 1.40713L782.551 42.2127C792.429 43.4781 796.678 43.225 805.93 42.2658Z" fill="#FFFBF0"/>
<path d="M823.992 32.8438L824.096 32.8868C831.022 28.3847 837.063 23.27 842.945 17.2342L847.662 19.2335L823.782 35.0532L816.415 52.4292L812.315 50.6906L819.594 33.5195L814.396 5.12976L819.366 7.23782L823.992 32.8438Z" fill="#FFFBF0"/>
</g>
<defs>
<clipPath id="clip0_1125_4894">
<rect width="847.662" height="78.43" fill="white"/>
</clipPath>
</defs>
</svg>